<svg width="157" height="37" viewBox="0 0 157 37" fill="none" xmlns="http://www.w3.org/2000/svg">
<path fill-rule="evenodd" clip-rule="evenodd" d="M36.3887 22.0673C34.1799 22.5479 31.9623 22.9137 29.8056 23.1902L14.4205 33.1287L9.83934 32.8993L19.9386 25.1032C19.9386 25.1032 19.9254 25.0763 19.9039 25.0286C19.8239 24.8513 19.6299 24.387 19.5793 23.9524C14.2971 24.0864 10.6809 23.7991 10.6809 23.7991C10.6809 23.7991 8.31443 23.7286 5.95908 23.5422L1.96886 25.1028C4.60645 31.7725 11.1165 36.491 18.7295 36.491C27.4532 36.491 34.7287 30.2952 36.3887 22.0673ZM1.35716 23.2723L1.80339 22.9511C1.78349 22.9445 1.76411 22.9379 1.74527 22.9312C1.51929 22.8512 1.34148 22.7643 1.20347 22.6732C1.25135 22.8742 1.3026 23.0739 1.35716 23.2723ZM0.965041 21.4985C1.10923 21.2851 1.28551 21.1424 1.28551 21.1424L0.80957 20.3497C0.849273 20.7364 0.901228 21.1195 0.965041 21.4985ZM36.5261 15.6818L29.1383 16.8266L13.5842 12.6477L11.0114 13.1626L18.2208 16.2694L20.0544 18.2341L8.94702 19.9552L1.35904 14.7978L1.08482 14.8432C2.77238 6.65096 10.031 0.490967 18.7295 0.490967C27.7224 0.490967 35.1762 7.07496 36.5261 15.6818Z" fill="white"/>
<path d="M61.626 9.73897V26.491H58.266V19.363H51.09V26.491H47.73V9.73897H51.09V16.627H58.266V9.73897H61.626ZM66.6371 11.611C66.0451 11.611 65.5491 11.427 65.1491 11.059C64.7651 10.675 64.5731 10.203 64.5731 9.64297C64.5731 9.08297 64.7651 8.61897 65.1491 8.25097C65.5491 7.86697 66.0451 7.67497 66.6371 7.67497C67.2291 7.67497 67.7171 7.86697 68.1011 8.25097C68.5011 8.61897 68.7011 9.08297 68.7011 9.64297C68.7011 10.203 68.5011 10.675 68.1011 11.059C67.7171 11.427 67.2291 11.611 66.6371 11.611ZM68.2931 13.195V26.491H64.9331V13.195H68.2931ZM76.8208 12.979C77.8128 12.979 78.6848 13.179 79.4368 13.579C80.1888 13.963 80.7808 14.467 81.2128 15.091V13.195H84.5968V26.587C84.5968 27.819 84.3488 28.915 83.8528 29.875C83.3568 30.851 82.6128 31.619 81.6208 32.179C80.6288 32.755 79.4288 33.043 78.0208 33.043C76.1328 33.043 74.5808 32.603 73.3648 31.723C72.1648 30.843 71.4848 29.643 71.3248 28.123H74.6608C74.8368 28.731 75.2128 29.211 75.7888 29.563C76.3808 29.931 77.0928 30.115 77.9248 30.115C78.9008 30.115 79.6928 29.819 80.3008 29.227C80.9088 28.651 81.2128 27.771 81.2128 26.587V24.523C80.7808 25.147 80.1808 25.667 79.4128 26.083C78.6608 26.499 77.7968 26.707 76.8208 26.707C75.7008 26.707 74.6768 26.419 73.7488 25.843C72.8208 25.267 72.0848 24.459 71.5408 23.419C71.0128 22.363 70.7488 21.155 70.7488 19.795C70.7488 18.451 71.0128 17.259 71.5408 16.219C72.0848 15.179 72.8128 14.379 73.7248 13.819C74.6528 13.259 75.6848 12.979 76.8208 12.979ZM81.2128 19.843C81.2128 19.027 81.0528 18.331 80.7328 17.755C80.4128 17.163 79.9808 16.715 79.4368 16.411C78.8928 16.091 78.3088 15.931 77.6848 15.931C77.0608 15.931 76.4848 16.083 75.9568 16.387C75.4288 16.691 74.9968 17.139 74.6608 17.731C74.3408 18.307 74.1808 18.995 74.1808 19.795C74.1808 20.595 74.3408 21.299 74.6608 21.907C74.9968 22.499 75.4288 22.955 75.9568 23.275C76.5008 23.595 77.0768 23.755 77.6848 23.755C78.3088 23.755 78.8928 23.603 79.4368 23.299C79.9808 22.979 80.4128 22.531 80.7328 21.955C81.0528 21.363 81.2128 20.659 81.2128 19.843ZM95.3664 13.003C96.3744 13.003 97.2704 13.227 98.0544 13.675C98.8384 14.107 99.4464 14.755 99.8784 15.619C100.326 16.467 100.55 17.491 100.55 18.691V26.491H97.1904V19.147C97.1904 18.091 96.9264 17.283 96.3984 16.723C95.8704 16.147 95.1504 15.859 94.2384 15.859C93.3104 15.859 92.5744 16.147 92.0304 16.723C91.5024 17.283 91.2384 18.091 91.2384 19.147V26.491H87.8784V8.73097H91.2384V14.851C91.6704 14.275 92.2464 13.827 92.9664 13.507C93.6864 13.171 94.4864 13.003 95.3664 13.003ZM120.258 13.003C121.89 13.003 123.202 13.507 124.194 14.515C125.202 15.507 125.706 16.899 125.706 18.691V26.491H122.346V19.147C122.346 18.107 122.082 17.315 121.554 16.771C121.026 16.211 120.306 15.931 119.394 15.931C118.482 15.931 117.754 16.211 117.21 16.771C116.682 17.315 116.418 18.107 116.418 19.147V26.491H113.058V19.147C113.058 18.107 112.794 17.315 112.266 16.771C111.738 16.211 111.018 15.931 110.106 15.931C109.178 15.931 108.442 16.211 107.898 16.771C107.37 17.315 107.106 18.107 107.106 19.147V26.491H103.746V13.195H107.106V14.803C107.538 14.243 108.09 13.803 108.762 13.483C109.45 13.163 110.202 13.003 111.018 13.003C112.058 13.003 112.986 13.227 113.802 13.675C114.618 14.107 115.25 14.731 115.698 15.547C116.13 14.779 116.754 14.163 117.57 13.699C118.402 13.235 119.298 13.003 120.258 13.003ZM134.798 26.707C133.518 26.707 132.366 26.427 131.342 25.867C130.318 25.291 129.51 24.483 128.918 23.443C128.342 22.403 128.054 21.203 128.054 19.843C128.054 18.483 128.35 17.283 128.942 16.243C129.55 15.203 130.374 14.403 131.414 13.843C132.454 13.267 133.614 12.979 134.894 12.979C136.174 12.979 137.334 13.267 138.374 13.843C139.414 14.403 140.23 15.203 140.822 16.243C141.43 17.283 141.734 18.483 141.734 19.843C141.734 21.203 141.422 22.403 140.798 23.443C140.19 24.483 139.358 25.291 138.302 25.867C137.262 26.427 136.094 26.707 134.798 26.707ZM134.798 23.779C135.406 23.779 135.974 23.635 136.502 23.347C137.046 23.043 137.478 22.595 137.798 22.003C138.118 21.411 138.278 20.691 138.278 19.843C138.278 18.579 137.942 17.611 137.27 16.939C136.614 16.251 135.806 15.907 134.846 15.907C133.886 15.907 133.078 16.251 132.422 16.939C131.782 17.611 131.462 18.579 131.462 19.843C131.462 21.107 131.774 22.083 132.398 22.771C133.038 23.443 133.838 23.779 134.798 23.779ZM149.287 26.707C148.199 26.707 147.223 26.515 146.359 26.131C145.495 25.731 144.807 25.195 144.295 24.523C143.799 23.851 143.527 23.107 143.479 22.291H146.863C146.927 22.803 147.175 23.227 147.607 23.563C148.055 23.899 148.607 24.067 149.263 24.067C149.903 24.067 150.399 23.939 150.751 23.683C151.119 23.427 151.303 23.099 151.303 22.699C151.303 22.267 151.079 21.947 150.631 21.739C150.199 21.515 149.503 21.275 148.543 21.019C147.551 20.779 146.735 20.531 146.095 20.275C145.471 20.019 144.927 19.627 144.463 19.099C144.015 18.571 143.791 17.859 143.791 16.963C143.791 16.227 143.999 15.555 144.415 14.947C144.847 14.339 145.455 13.859 146.239 13.507C147.039 13.155 147.975 12.979 149.047 12.979C150.631 12.979 151.895 13.379 152.839 14.179C153.783 14.963 154.303 16.027 154.399 17.371H151.183C151.135 16.843 150.911 16.427 150.511 16.123C150.127 15.803 149.607 15.643 148.951 15.643C148.343 15.643 147.871 15.755 147.535 15.979C147.215 16.203 147.055 16.515 147.055 16.915C147.055 17.363 147.279 17.707 147.727 17.947C148.175 18.171 148.871 18.403 149.815 18.643C150.775 18.883 151.567 19.131 152.191 19.387C152.815 19.643 153.351 20.043 153.799 20.587C154.263 21.115 154.503 21.819 154.519 22.699C154.519 23.467 154.303 24.155 153.871 24.763C153.455 25.371 152.847 25.851 152.047 26.203C151.263 26.539 150.343 26.707 149.287 26.707Z" fill="white"/>
</svg>
